<svg width="689" height="194" viewBox="0 0 689 194" fill="none" xmlns="http://www.w3.org/2000/svg">
<ellipse opacity="0.8" cx="4.54334" cy="3.12903" rx="4.54334" ry="3.12903" fill="#8798B5"/>
<ellipse opacity="0.8" cx="34.0751" cy="3.12903" rx="4.54334" ry="3.12903" fill="#8798B5"/>
<ellipse opacity="0.8" cx="63.6068" cy="3.12903" rx="4.54334" ry="3.12903" fill="#8798B5"/>
<ellipse opacity="0.8" cx="93.1386" cy="3.12903" rx="4.54334" ry="3.12903" fill="#8798B5"/>
<ellipse opacity="0.8" cx="122.67" cy="3.12903" rx="4.54334" ry="3.12903" fill="#8798B5"/>
<ellipse opacity="0.8" cx="152.202" cy="3.12903" rx="4.54334" ry="3.12903" fill="#8798B5"/>
<ellipse opacity="0.8" cx="181.734" cy="3.12903" rx="4.54334" ry="3.12903" fill="#8798B5"/>
<ellipse opacity="0.8" cx="211.266" cy="3.12903" rx="4.54334" ry="3.12903" fill="#8798B5"/>
<ellipse opacity="0.8" cx="240.797" cy="3.12903" rx="4.54334" ry="3.12903" fill="#8798B5"/>
<ellipse opacity="0.8" cx="270.329" cy="3.12903" rx="4.54334" ry="3.12903" fill="#8798B5"/>
<ellipse opacity="0.8" cx="299.861" cy="3.12903" rx="4.54334" ry="3.12903" fill="#8798B5"/>
<ellipse opacity="0.8" cx="329.392" cy="3.12903" rx="4.54334" ry="3.12903" fill="#8798B5"/>
<ellipse opacity="0.8" cx="358.924" cy="3.12903" rx="4.54334" ry="3.12903" fill="#8798B5"/>
<ellipse opacity="0.8" cx="388.456" cy="3.12903" rx="4.54334" ry="3.12903" fill="#8798B5"/>
<ellipse opacity="0.8" cx="417.987" cy="3.12903" rx="4.54334" ry="3.12903" fill="#8798B5"/>
<ellipse opacity="0.8" cx="447.519" cy="3.12903" rx="4.54334" ry="3.12903" fill="#8798B5"/>
<ellipse opacity="0.8" cx="477.051" cy="3.12903" rx="4.54334" ry="3.12903" fill="#8798B5"/>
<ellipse opacity="0.8" cx="506.583" cy="3.12903" rx="4.54334" ry="3.12903" fill="#8798B5"/>
<ellipse opacity="0.8" cx="536.115" cy="3.12903" rx="4.54334" ry="3.12903" fill="#8798B5"/>
<ellipse opacity="0.8" cx="565.646" cy="3.12903" rx="4.54334" ry="3.12903" fill="#8798B5"/>
<ellipse opacity="0.8" cx="595.178" cy="3.12903" rx="4.54334" ry="3.12903" fill="#8798B5"/>
<ellipse opacity="0.8" cx="624.71" cy="3.12903" rx="4.54334" ry="3.12903" fill="#8798B5"/>
<ellipse opacity="0.8" cx="654.241" cy="3.12903" rx="4.54334" ry="3.12903" fill="#8798B5"/>
<ellipse opacity="0.8" cx="683.773" cy="3.12903" rx="4.54334" ry="3.12903" fill="#8798B5"/>
<ellipse opacity="0.8" cx="4.54334" cy="26.5967" rx="4.54334" ry="3.12903" fill="#8798B5"/>
<ellipse opacity="0.8" cx="34.0751" cy="26.5967" rx="4.54334" ry="3.12903" fill="#8798B5"/>
<ellipse opacity="0.8" cx="63.6068" cy="26.5967" rx="4.54334" ry="3.12903" fill="#8798B5"/>
<ellipse opacity="0.8" cx="93.1386" cy="26.5967" rx="4.54334" ry="3.12903" fill="#8798B5"/>
<ellipse opacity="0.8" cx="122.67" cy="26.5967" rx="4.54334" ry="3.12903" fill="#8798B5"/>
<ellipse opacity="0.8" cx="152.202" cy="26.5967" rx="4.54334" ry="3.12903" fill="#8798B5"/>
<ellipse opacity="0.8" cx="181.734" cy="26.5967" rx="4.54334" ry="3.12903" fill="#8798B5"/>
<ellipse opacity="0.8" cx="211.266" cy="26.5967" rx="4.54334" ry="3.12903" fill="#8798B5"/>
<ellipse opacity="0.8" cx="240.797" cy="26.5967" rx="4.54334" ry="3.12903" fill="#8798B5"/>
<ellipse opacity="0.8" cx="270.329" cy="26.5967" rx="4.54334" ry="3.12903" fill="#8798B5"/>
<ellipse opacity="0.8" cx="299.861" cy="26.5967" rx="4.54334" ry="3.12903" fill="#8798B5"/>
<ellipse opacity="0.8" cx="329.392" cy="26.5967" rx="4.54334" ry="3.12903" fill="#8798B5"/>
<ellipse opacity="0.8" cx="358.924" cy="26.5967" rx="4.54334" ry="3.12903" fill="#8798B5"/>
<ellipse opacity="0.8" cx="388.456" cy="26.5967" rx="4.54334" ry="3.12903" fill="#8798B5"/>
<ellipse opacity="0.8" cx="417.987" cy="26.5967" rx="4.54334" ry="3.12903" fill="#8798B5"/>
<ellipse opacity="0.8" cx="447.519" cy="26.5967" rx="4.54334" ry="3.12903" fill="#8798B5"/>
<ellipse opacity="0.8" cx="477.051" cy="26.5967" rx="4.54334" ry="3.12903" fill="#8798B5"/>
<ellipse opacity="0.8" cx="506.583" cy="26.5967" rx="4.54334" ry="3.12903" fill="#8798B5"/>
<ellipse opacity="0.8" cx="536.115" cy="26.5967" rx="4.54334" ry="3.12903" fill="#8798B5"/>
<ellipse opacity="0.8" cx="565.646" cy="26.5967" rx="4.54334" ry="3.12903" fill="#8798B5"/>
<ellipse opacity="0.8" cx="595.178" cy="26.5967" rx="4.54334" ry="3.12903" fill="#8798B5"/>
<ellipse opacity="0.8" cx="624.71" cy="26.5967" rx="4.54334" ry="3.12903" fill="#8798B5"/>
<ellipse opacity="0.8" cx="654.241" cy="26.5967" rx="4.54334" ry="3.12903" fill="#8798B5"/>
<ellipse opacity="0.8" cx="683.773" cy="26.5967" rx="4.54334" ry="3.12903" fill="#8798B5"/>
<ellipse opacity="0.8" cx="4.54334" cy="50.0645" rx="4.54334" ry="3.12903" fill="#8798B5"/>
<ellipse opacity="0.8" cx="34.0751" cy="50.0645" rx="4.54334" ry="3.12903" fill="#8798B5"/>
<ellipse opacity="0.8" cx="63.6068" cy="50.0645" rx="4.54334" ry="3.12903" fill="#8798B5"/>
<ellipse opacity="0.8" cx="93.1386" cy="50.0645" rx="4.54334" ry="3.12903" fill="#8798B5"/>
<ellipse opacity="0.8" cx="122.67" cy="50.0645" rx="4.54334" ry="3.12903" fill="#8798B5"/>
<ellipse opacity="0.8" cx="152.202" cy="50.0645" rx="4.54334" ry="3.12903" fill="#8798B5"/>
<ellipse opacity="0.8" cx="181.734" cy="50.0645" rx="4.54334" ry="3.12903" fill="#8798B5"/>
<ellipse opacity="0.8" cx="211.266" cy="50.0645" rx="4.54334" ry="3.12903" fill="#8798B5"/>
<ellipse opacity="0.8" cx="240.797" cy="50.0645" rx="4.54334" ry="3.12903" fill="#8798B5"/>
<ellipse opacity="0.8" cx="270.329" cy="50.0645" rx="4.54334" ry="3.12903" fill="#8798B5"/>
<ellipse opacity="0.8" cx="299.861" cy="50.0645" rx="4.54334" ry="3.12903" fill="#8798B5"/>
<ellipse opacity="0.8" cx="329.392" cy="50.0645" rx="4.54334" ry="3.12903" fill="#8798B5"/>
<ellipse opacity="0.8" cx="358.924" cy="50.0645" rx="4.54334" ry="3.12903" fill="#8798B5"/>
<ellipse opacity="0.8" cx="388.456" cy="50.0645" rx="4.54334" ry="3.12903" fill="#8798B5"/>
<ellipse opacity="0.8" cx="417.987" cy="50.0645" rx="4.54334" ry="3.12903" fill="#8798B5"/>
<ellipse opacity="0.8" cx="447.519" cy="50.0645" rx="4.54334" ry="3.12903" fill="#8798B5"/>
<ellipse opacity="0.8" cx="477.051" cy="50.0645" rx="4.54334" ry="3.12903" fill="#8798B5"/>
<ellipse opacity="0.8" cx="506.583" cy="50.0645" rx="4.54334" ry="3.12903" fill="#8798B5"/>
<ellipse opacity="0.8" cx="536.115" cy="50.0645" rx="4.54334" ry="3.12903" fill="#8798B5"/>
<ellipse opacity="0.8" cx="565.646" cy="50.0645" rx="4.54334" ry="3.12903" fill="#8798B5"/>
<ellipse opacity="0.8" cx="595.178" cy="50.0645" rx="4.54334" ry="3.12903" fill="#8798B5"/>
<ellipse opacity="0.8" cx="624.71" cy="50.0645" rx="4.54334" ry="3.12903" fill="#8798B5"/>
<ellipse opacity="0.8" cx="654.241" cy="50.0645" rx="4.54334" ry="3.12903" fill="#8798B5"/>
<ellipse opacity="0.8" cx="683.773" cy="50.0645" rx="4.54334" ry="3.12903" fill="#8798B5"/>
<ellipse opacity="0.8" cx="4.54334" cy="73.5322" rx="4.54334" ry="3.12903" fill="#8798B5"/>
<ellipse opacity="0.8" cx="34.0751" cy="73.5322" rx="4.54334" ry="3.12903" fill="#8798B5"/>
<ellipse opacity="0.8" cx="63.6068" cy="73.5322" rx="4.54334" ry="3.12903" fill="#8798B5"/>
<ellipse opacity="0.8" cx="93.1386" cy="73.5322" rx="4.54334" ry="3.12903" fill="#8798B5"/>
<ellipse opacity="0.8" cx="122.67" cy="73.5322" rx="4.54334" ry="3.12903" fill="#8798B5"/>
<ellipse opacity="0.8" cx="152.202" cy="73.5322" rx="4.54334" ry="3.12903" fill="#8798B5"/>
<ellipse opacity="0.8" cx="181.734" cy="73.5322" rx="4.54334" ry="3.12903" fill="#8798B5"/>
<ellipse opacity="0.8" cx="211.266" cy="73.5322" rx="4.54334" ry="3.12903" fill="#8798B5"/>
<ellipse opacity="0.8" cx="240.797" cy="73.5322" rx="4.54334" ry="3.12903" fill="#8798B5"/>
<ellipse opacity="0.8" cx="270.329" cy="73.5322" rx="4.54334" ry="3.12903" fill="#8798B5"/>
<ellipse opacity="0.8" cx="299.861" cy="73.5322" rx="4.54334" ry="3.12903" fill="#8798B5"/>
<ellipse opacity="0.8" cx="329.392" cy="73.5322" rx="4.54334" ry="3.12903" fill="#8798B5"/>
<ellipse opacity="0.8" cx="358.924" cy="73.5322" rx="4.54334" ry="3.12903" fill="#8798B5"/>
<ellipse opacity="0.8" cx="388.456" cy="73.5322" rx="4.54334" ry="3.12903" fill="#8798B5"/>
<ellipse opacity="0.8" cx="417.987" cy="73.5322" rx="4.54334" ry="3.12903" fill="#8798B5"/>
<ellipse opacity="0.8" cx="447.519" cy="73.5322" rx="4.54334" ry="3.12903" fill="#8798B5"/>
<ellipse opacity="0.8" cx="477.051" cy="73.5322" rx="4.54334" ry="3.12903" fill="#8798B5"/>
<ellipse opacity="0.8" cx="506.583" cy="73.5322" rx="4.54334" ry="3.12903" fill="#8798B5"/>
<ellipse opacity="0.8" cx="536.115" cy="73.5322" rx="4.54334" ry="3.12903" fill="#8798B5"/>
<ellipse opacity="0.8" cx="565.646" cy="73.5322" rx="4.54334" ry="3.12903" fill="#8798B5"/>
<ellipse opacity="0.8" cx="595.178" cy="73.5322" rx="4.54334" ry="3.12903" fill="#8798B5"/>
<ellipse opacity="0.8" cx="624.71" cy="73.5322" rx="4.54334" ry="3.12903" fill="#8798B5"/>
<ellipse opacity="0.8" cx="654.241" cy="73.5322" rx="4.54334" ry="3.12903" fill="#8798B5"/>
<ellipse opacity="0.8" cx="683.773" cy="73.5322" rx="4.54334" ry="3.12903" fill="#8798B5"/>
<ellipse opacity="0.8" cx="4.54334" cy="97" rx="4.54334" ry="3.12903" fill="#8798B5"/>
<ellipse opacity="0.8" cx="34.0751" cy="97" rx="4.54334" ry="3.12903" fill="#8798B5"/>
<ellipse opacity="0.8" cx="63.6068" cy="97" rx="4.54334" ry="3.12903" fill="#8798B5"/>
<ellipse opacity="0.8" cx="93.1386" cy="97" rx="4.54334" ry="3.12903" fill="#8798B5"/>
<ellipse opacity="0.8" cx="122.67" cy="97" rx="4.54334" ry="3.12903" fill="#8798B5"/>
<ellipse opacity="0.8" cx="152.202" cy="97" rx="4.54334" ry="3.12903" fill="#8798B5"/>
<ellipse opacity="0.8" cx="181.734" cy="97" rx="4.54334" ry="3.12903" fill="#8798B5"/>
<ellipse opacity="0.8" cx="211.266" cy="97" rx="4.54334" ry="3.12903" fill="#8798B5"/>
<ellipse opacity="0.8" cx="240.797" cy="97" rx="4.54334" ry="3.12903" fill="#8798B5"/>
<ellipse opacity="0.8" cx="270.329" cy="97" rx="4.54334" ry="3.12903" fill="#8798B5"/>
<ellipse opacity="0.8" cx="299.861" cy="97" rx="4.54334" ry="3.12903" fill="#8798B5"/>
<ellipse opacity="0.8" cx="329.392" cy="97" rx="4.54334" ry="3.12903" fill="#8798B5"/>
<ellipse opacity="0.8" cx="358.924" cy="97" rx="4.54334" ry="3.12903" fill="#8798B5"/>
<ellipse opacity="0.8" cx="388.456" cy="97" rx="4.54334" ry="3.12903" fill="#8798B5"/>
<ellipse opacity="0.8" cx="417.987" cy="97" rx="4.54334" ry="3.12903" fill="#8798B5"/>
<ellipse opacity="0.8" cx="447.519" cy="97" rx="4.54334" ry="3.12903" fill="#8798B5"/>
<ellipse opacity="0.8" cx="477.051" cy="97" rx="4.54334" ry="3.12903" fill="#8798B5"/>
<ellipse opacity="0.8" cx="506.583" cy="97" rx="4.54334" ry="3.12903" fill="#8798B5"/>
<ellipse opacity="0.8" cx="536.115" cy="97" rx="4.54334" ry="3.12903" fill="#8798B5"/>
<ellipse opacity="0.8" cx="565.646" cy="97" rx="4.54334" ry="3.12903" fill="#8798B5"/>
<ellipse opacity="0.8" cx="595.178" cy="97" rx="4.54334" ry="3.12903" fill="#8798B5"/>
<ellipse opacity="0.8" cx="624.71" cy="97" rx="4.54334" ry="3.12903" fill="#8798B5"/>
<ellipse opacity="0.8" cx="654.241" cy="97" rx="4.54334" ry="3.12903" fill="#8798B5"/>
<ellipse opacity="0.8" cx="683.773" cy="97" rx="4.54334" ry="3.12903" fill="#8798B5"/>
<ellipse opacity="0.8" cx="4.54334" cy="120.468" rx="4.54334" ry="3.12903" fill="#8798B5"/>
<ellipse opacity="0.8" cx="34.0751" cy="120.468" rx="4.54334" ry="3.12903" fill="#8798B5"/>
<ellipse opacity="0.8" cx="63.6068" cy="120.468" rx="4.54334" ry="3.12903" fill="#8798B5"/>
<ellipse opacity="0.8" cx="93.1386" cy="120.468" rx="4.54334" ry="3.12903" fill="#8798B5"/>
<ellipse opacity="0.8" cx="122.67" cy="120.468" rx="4.54334" ry="3.12903" fill="#8798B5"/>
<ellipse opacity="0.8" cx="152.202" cy="120.468" rx="4.54334" ry="3.12903" fill="#8798B5"/>
<ellipse opacity="0.8" cx="181.734" cy="120.468" rx="4.54334" ry="3.12903" fill="#8798B5"/>
<ellipse opacity="0.8" cx="211.266" cy="120.468" rx="4.54334" ry="3.12903" fill="#8798B5"/>
<ellipse opacity="0.8" cx="240.797" cy="120.468" rx="4.54334" ry="3.12903" fill="#8798B5"/>
<ellipse opacity="0.8" cx="270.329" cy="120.468" rx="4.54334" ry="3.12903" fill="#8798B5"/>
<ellipse opacity="0.8" cx="299.861" cy="120.468" rx="4.54334" ry="3.12903" fill="#8798B5"/>
<ellipse opacity="0.8" cx="329.392" cy="120.468" rx="4.54334" ry="3.12903" fill="#8798B5"/>
<ellipse opacity="0.8" cx="358.924" cy="120.468" rx="4.54334" ry="3.12903" fill="#8798B5"/>
<ellipse opacity="0.8" cx="388.456" cy="120.468" rx="4.54334" ry="3.12903" fill="#8798B5"/>
<ellipse opacity="0.8" cx="417.987" cy="120.468" rx="4.54334" ry="3.12903" fill="#8798B5"/>
<ellipse opacity="0.8" cx="447.519" cy="120.468" rx="4.54334" ry="3.12903" fill="#8798B5"/>
<ellipse opacity="0.8" cx="477.051" cy="120.468" rx="4.54334" ry="3.12903" fill="#8798B5"/>
<ellipse opacity="0.8" cx="506.583" cy="120.468" rx="4.54334" ry="3.12903" fill="#8798B5"/>
<ellipse opacity="0.8" cx="536.115" cy="120.468" rx="4.54334" ry="3.12903" fill="#8798B5"/>
<ellipse opacity="0.8" cx="565.646" cy="120.468" rx="4.54334" ry="3.12903" fill="#8798B5"/>
<ellipse opacity="0.8" cx="595.178" cy="120.468" rx="4.54334" ry="3.12903" fill="#8798B5"/>
<ellipse opacity="0.8" cx="624.71" cy="120.468" rx="4.54334" ry="3.12903" fill="#8798B5"/>
<ellipse opacity="0.8" cx="654.241" cy="120.468" rx="4.54334" ry="3.12903" fill="#8798B5"/>
<ellipse opacity="0.8" cx="683.773" cy="120.468" rx="4.54334" ry="3.12903" fill="#8798B5"/>
<ellipse opacity="0.8" cx="4.54334" cy="143.936" rx="4.54334" ry="3.12903" fill="#8798B5"/>
<ellipse opacity="0.8" cx="34.0751" cy="143.936" rx="4.54334" ry="3.12903" fill="#8798B5"/>
<ellipse opacity="0.8" cx="63.6068" cy="143.936" rx="4.54334" ry="3.12903" fill="#8798B5"/>
<ellipse opacity="0.8" cx="93.1386" cy="143.936" rx="4.54334" ry="3.12903" fill="#8798B5"/>
<ellipse opacity="0.8" cx="122.67" cy="143.936" rx="4.54334" ry="3.12903" fill="#8798B5"/>
<ellipse opacity="0.8" cx="152.202" cy="143.936" rx="4.54334" ry="3.12903" fill="#8798B5"/>
<ellipse opacity="0.8" cx="181.734" cy="143.936" rx="4.54334" ry="3.12903" fill="#8798B5"/>
<ellipse opacity="0.8" cx="211.266" cy="143.936" rx="4.54334" ry="3.12903" fill="#8798B5"/>
<ellipse opacity="0.8" cx="240.797" cy="143.936" rx="4.54334" ry="3.12903" fill="#8798B5"/>
<ellipse opacity="0.8" cx="270.329" cy="143.936" rx="4.54334" ry="3.12903" fill="#8798B5"/>
<ellipse opacity="0.8" cx="299.861" cy="143.936" rx="4.54334" ry="3.12903" fill="#8798B5"/>
<ellipse opacity="0.8" cx="329.392" cy="143.936" rx="4.54334" ry="3.12903" fill="#8798B5"/>
<ellipse opacity="0.8" cx="358.924" cy="143.936" rx="4.54334" ry="3.12903" fill="#8798B5"/>
<ellipse opacity="0.8" cx="388.456" cy="143.936" rx="4.54334" ry="3.12903" fill="#8798B5"/>
<ellipse opacity="0.8" cx="417.987" cy="143.936" rx="4.54334" ry="3.12903" fill="#8798B5"/>
<ellipse opacity="0.8" cx="447.519" cy="143.936" rx="4.54334" ry="3.12903" fill="#8798B5"/>
<ellipse opacity="0.8" cx="477.051" cy="143.936" rx="4.54334" ry="3.12903" fill="#8798B5"/>
<ellipse opacity="0.8" cx="506.583" cy="143.936" rx="4.54334" ry="3.12903" fill="#8798B5"/>
<ellipse opacity="0.8" cx="536.115" cy="143.936" rx="4.54334" ry="3.12903" fill="#8798B5"/>
<ellipse opacity="0.8" cx="565.646" cy="143.936" rx="4.54334" ry="3.12903" fill="#8798B5"/>
<ellipse opacity="0.8" cx="595.178" cy="143.936" rx="4.54334" ry="3.12903" fill="#8798B5"/>
<ellipse opacity="0.8" cx="624.71" cy="143.936" rx="4.54334" ry="3.12903" fill="#8798B5"/>
<ellipse opacity="0.8" cx="654.241" cy="143.936" rx="4.54334" ry="3.12903" fill="#8798B5"/>
<ellipse opacity="0.8" cx="683.773" cy="143.936" rx="4.54334" ry="3.12903" fill="#8798B5"/>
<ellipse opacity="0.8" cx="4.54334" cy="167.403" rx="4.54334" ry="3.12903" fill="#8798B5"/>
<ellipse opacity="0.8" cx="34.0751" cy="167.403" rx="4.54334" ry="3.12903" fill="#8798B5"/>
<ellipse opacity="0.8" cx="63.6068" cy="167.403" rx="4.54334" ry="3.12903" fill="#8798B5"/>
<ellipse opacity="0.8" cx="93.1386" cy="167.403" rx="4.54334" ry="3.12903" fill="#8798B5"/>
<ellipse opacity="0.8" cx="122.67" cy="167.403" rx="4.54334" ry="3.12903" fill="#8798B5"/>
<ellipse opacity="0.8" cx="152.202" cy="167.403" rx="4.54334" ry="3.12903" fill="#8798B5"/>
<ellipse opacity="0.8" cx="181.734" cy="167.403" rx="4.54334" ry="3.12903" fill="#8798B5"/>
<ellipse opacity="0.8" cx="211.266" cy="167.403" rx="4.54334" ry="3.12903" fill="#8798B5"/>
<ellipse opacity="0.8" cx="240.797" cy="167.403" rx="4.54334" ry="3.12903" fill="#8798B5"/>
<ellipse opacity="0.8" cx="270.329" cy="167.403" rx="4.54334" ry="3.12903" fill="#8798B5"/>
<ellipse opacity="0.8" cx="299.861" cy="167.403" rx="4.54334" ry="3.12903" fill="#8798B5"/>
<ellipse opacity="0.8" cx="329.392" cy="167.403" rx="4.54334" ry="3.12903" fill="#8798B5"/>
<ellipse opacity="0.8" cx="358.924" cy="167.403" rx="4.54334" ry="3.12903" fill="#8798B5"/>
<ellipse opacity="0.8" cx="388.456" cy="167.403" rx="4.54334" ry="3.12903" fill="#8798B5"/>
<ellipse opacity="0.8" cx="417.987" cy="167.403" rx="4.54334" ry="3.12903" fill="#8798B5"/>
<ellipse opacity="0.8" cx="447.519" cy="167.403" rx="4.54334" ry="3.12903" fill="#8798B5"/>
<ellipse opacity="0.8" cx="477.051" cy="167.403" rx="4.54334" ry="3.12903" fill="#8798B5"/>
<ellipse opacity="0.8" cx="506.583" cy="167.403" rx="4.54334" ry="3.12903" fill="#8798B5"/>
<ellipse opacity="0.8" cx="536.115" cy="167.403" rx="4.54334" ry="3.12903" fill="#8798B5"/>
<ellipse opacity="0.8" cx="565.646" cy="167.403" rx="4.54334" ry="3.12903" fill="#8798B5"/>
<ellipse opacity="0.8" cx="595.178" cy="167.403" rx="4.54334" ry="3.12903" fill="#8798B5"/>
<ellipse opacity="0.8" cx="624.71" cy="167.403" rx="4.54334" ry="3.12903" fill="#8798B5"/>
<ellipse opacity="0.8" cx="654.241" cy="167.403" rx="4.54334" ry="3.12903" fill="#8798B5"/>
<ellipse opacity="0.8" cx="683.773" cy="167.403" rx="4.54334" ry="3.12903" fill="#8798B5"/>
<ellipse opacity="0.8" cx="4.54334" cy="190.871" rx="4.54334" ry="3.12903" fill="#8798B5"/>
<ellipse opacity="0.8" cx="34.0751" cy="190.871" rx="4.54334" ry="3.12903" fill="#8798B5"/>
<ellipse opacity="0.8" cx="63.6068" cy="190.871" rx="4.54334" ry="3.12903" fill="#8798B5"/>
<ellipse opacity="0.8" cx="93.1386" cy="190.871" rx="4.54334" ry="3.12903" fill="#8798B5"/>
<ellipse opacity="0.8" cx="122.67" cy="190.871" rx="4.54334" ry="3.12903" fill="#8798B5"/>
<ellipse opacity="0.8" cx="152.202" cy="190.871" rx="4.54334" ry="3.12903" fill="#8798B5"/>
<ellipse opacity="0.8" cx="181.734" cy="190.871" rx="4.54334" ry="3.12903" fill="#8798B5"/>
<ellipse opacity="0.8" cx="211.266" cy="190.871" rx="4.54334" ry="3.12903" fill="#8798B5"/>
<ellipse opacity="0.8" cx="240.797" cy="190.871" rx="4.54334" ry="3.12903" fill="#8798B5"/>
<ellipse opacity="0.8" cx="270.329" cy="190.871" rx="4.54334" ry="3.12903" fill="#8798B5"/>
<ellipse opacity="0.8" cx="299.861" cy="190.871" rx="4.54334" ry="3.12903" fill="#8798B5"/>
<ellipse opacity="0.8" cx="329.392" cy="190.871" rx="4.54334" ry="3.12903" fill="#8798B5"/>
<ellipse opacity="0.8" cx="358.924" cy="190.871" rx="4.54334" ry="3.12903" fill="#8798B5"/>
<ellipse opacity="0.8" cx="388.456" cy="190.871" rx="4.54334" ry="3.12903" fill="#8798B5"/>
<ellipse opacity="0.8" cx="417.987" cy="190.871" rx="4.54334" ry="3.12903" fill="#8798B5"/>
<ellipse opacity="0.8" cx="447.519" cy="190.871" rx="4.54334" ry="3.12903" fill="#8798B5"/>
<ellipse opacity="0.8" cx="477.051" cy="190.871" rx="4.54334" ry="3.12903" fill="#8798B5"/>
<ellipse opacity="0.8" cx="506.583" cy="190.871" rx="4.54334" ry="3.12903" fill="#8798B5"/>
<ellipse opacity="0.8" cx="536.115" cy="190.871" rx="4.54334" ry="3.12903" fill="#8798B5"/>
<ellipse opacity="0.8" cx="565.646" cy="190.871" rx="4.54334" ry="3.12903" fill="#8798B5"/>
<ellipse opacity="0.8" cx="595.178" cy="190.871" rx="4.54334" ry="3.12903" fill="#8798B5"/>
<ellipse opacity="0.8" cx="624.71" cy="190.871" rx="4.54334" ry="3.12903" fill="#8798B5"/>
<ellipse opacity="0.8" cx="654.241" cy="190.871" rx="4.54334" ry="3.12903" fill="#8798B5"/>
<ellipse opacity="0.8" cx="683.773" cy="190.871" rx="4.54334" ry="3.12903" fill="#8798B5"/>
</svg>
