<svg width="155" height="135" viewBox="0 0 155 135" fill="none" xmlns="http://www.w3.org/2000/svg">
<path fill-rule="evenodd" clip-rule="evenodd" d="M33.6347 27.9925C32.5654 29.3645 31.7523 31.336 31.8284 32.3731C32.0382 35.23 43.8513 50.6051 45.7299 50.4672C49.1776 50.214 48.3136 46.3445 43.3197 39.6706C40.4686 35.8608 38.4279 32.4068 38.7834 31.9949C39.1387 31.5818 59.0353 32.2155 82.9968 33.4018C106.957 34.5882 126.994 35.5213 127.52 35.475C128.047 35.4299 128.52 35.9545 128.57 36.6425C128.68 38.14 74.4307 105.872 72.627 106.488C70.5614 107.195 66.3963 83.8787 67.5102 77.8428C69.0334 69.5899 75.3549 63.5792 88.6552 57.7427C98.0942 53.6001 100.142 52.2142 99.9849 50.0735C99.7436 46.7869 96.5869 47.5355 82.3566 54.2593C61.6783 64.0279 58.0856 72.9702 63.9161 100.146C66.3459 111.474 67.4979 113.154 72.5748 112.782C76.6261 112.484 76.8564 112.223 113.847 66.0374C135.754 38.6839 137.815 34.8927 132.738 31.2734C131.175 30.159 45.6721 24.8485 37.6204 25.3663C36.4981 25.4385 34.7039 26.6206 33.6347 27.9925ZM34.7406 67.6604C28.4898 70.449 25.7625 72.3361 25.87 73.8004C26.136 77.4232 27.334 77.3842 36.7058 73.4471C47.068 69.0953 50.566 66.5859 49.098 64.5581C47.6329 62.5353 44.9168 63.1217 34.7406 67.6604ZM34.2914 83.2389C24.189 87.9059 18.6744 91.1432 18.5156 92.501C18.0583 96.3943 21.6551 95.6326 37.2476 88.5324C55.2202 80.3497 56.0202 79.8448 54.8685 77.3978C53.6055 74.7122 51.3888 75.3416 34.2914 83.2389Z" fill="#FFA500"/>
<path fill-rule="evenodd" clip-rule="evenodd" d="M33.6339 27.9919C32.5646 29.3638 31.7515 31.3354 31.8277 32.3725C32.0374 35.2294 43.8505 50.6045 45.7291 50.4665C49.1768 50.2134 48.3128 46.3438 43.319 39.6699C40.4679 35.8601 38.4271 32.4061 38.7826 31.9943C39.138 31.5812 59.0346 32.2148 82.9961 33.4011C106.956 34.5875 126.993 35.5207 127.519 35.4744C128.046 35.4293 128.519 35.9538 128.569 36.6418C128.679 38.1393 74.4299 105.872 72.6263 106.488C70.5606 107.195 66.3956 83.8781 67.5094 77.8422C69.0326 69.5892 75.3541 63.5786 88.6544 57.7421C98.0934 53.5995 100.141 52.2136 99.9842 50.0728C99.7429 46.7863 96.5862 47.5349 82.3559 54.2587C61.6776 64.0273 58.0848 72.9696 63.9154 100.146C66.3452 111.473 67.4971 113.154 72.574 112.781C76.6253 112.484 76.8556 112.222 113.846 66.0367C135.753 38.6832 137.814 34.8921 132.737 31.2727C131.174 30.1583 45.6713 24.8478 37.6197 25.3657C36.4974 25.4378 34.7032 26.62 33.6339 27.9919Z" fill="#0336FF"/>
</svg>
